<svg fill="#fff" height="512pt" viewBox="-16 0 512 512" width="512pt" xmlns="http://www.w3.org/2000/svg"><path d="M434.223 367.797l44.964-209.902H119.363L85.527 0H0v30.145h61.156l69.793 325.671-9.789 56.524c-15.008 9.625-24.984 26.445-24.984 45.562 0 29.828 24.27 54.098 54.101 54.098 29.828 0 54.098-24.27 54.098-54.098 0-8.601-2.023-16.73-5.61-23.957h95.606a53.74 53.74 0 0 0-5.613 23.957c0 29.828 24.27 54.098 54.101 54.098 29.828 0 54.098-24.27 54.098-54.098 0-29.832-24.27-54.101-54.098-54.101H153.23l6.239-36.004zm7.675-179.758l-32.046 149.613H157.887L125.82 188.04zM174.234 457.902c0 13.207-10.75 23.953-23.957 23.953-13.21 0-23.957-10.746-23.957-23.953 0-13.21 10.75-23.957 23.957-23.957s23.957 10.746 23.957 23.957zm192.578 0c0 13.207-10.746 23.953-23.953 23.953-13.21 0-23.957-10.746-23.957-23.953 0-13.21 10.75-23.957 23.957-23.957s23.954 10.746 23.954 23.957zm0 0"/><path d="M268.79 223.68h30.144v78.328h-30.145zm0 0M341.258 223.68h30.144v78.328h-30.144zm0 0M196.32 223.68h30.145v78.328H196.32zm0 0"/></svg>
