<svg xmlns="http://www.w3.org/2000/svg" viewBox="0 0 512 512"><linearGradient x2="0" y2="100%" id="a"><stop offset="0%" stop-color="#f6a000"/><stop offset="100%" stop-color="#e63011"/></linearGradient><path fill="url(#a)" d="M444.5 110.7l18.2-21.1 22.7 19.6L511.5 79l-75.7-65.4-26.1 30.3 22.7 19.6-18.2 21.1C379.5 59.5 339 44.4 296 40.8V0h-40v40.8c-43.2 3.6-84 18.9-118.8 44.2l-18.6-21.6 22.7-19.6-26.1-30.3L39.5 79l26.1 30.3 22.7-19.6 18.7 21.6C78.1 140.9 57.9 176.9 47.7 216h41.7C114.8 137.2 188.8 80 276 80c108.1 0 196 87.9 196 196s-87.9 196-196 196c-33.6 0-65.3-8.5-93-23.5V493c29 12.4 60.5 19 93 19 63 0 122.3-24.5 166.9-69.1C487.5 398.3 512 339 512 276c0-62.3-24-120.9-67.5-165.3z"/><path fill="url(#a)" d="M256 120v176h133v-40h-93V120zM98.2 412.4h-31v-31H1.7v-23.1l51.6-90.4h35.5l-47.3 82.6h25.8v-31h31v31h16.9v31h-17v30.9zm40.2-17.9c-8.6-13-12.9-31.1-12.9-54.4 0-23.3 4.2-41.3 12.6-54.3 8.5-13.1 21-19.6 37.4-19.6 16.2 0 28.6 6.5 37.2 19.6 8.5 13.1 12.8 31.2 12.8 54.3 0 23.4-4.2 41.6-12.6 54.5-8.4 12.9-20.7 19.4-36.9 19.4-16.5 0-29-6.5-37.6-19.5zm20.1-54.4c0 30 5.8 45 17.3 45 5.9 0 10.1-3.4 12.7-10.1 2.5-6.7 3.8-18.4 3.8-34.9s-1.3-28.1-3.8-34.9c-2.5-6.7-6.9-10.1-13.1-10.1-5.9 0-10.2 3.5-12.9 10.4-2.7 7-4 18.5-4 34.6z"/></svg>