<svg height="512pt" viewBox="0 0 512 512" width="512pt" xmlns="http://www.w3.org/2000/svg"><linearGradient x2="0" y2="100%" id="a"><stop offset="0%" stop-color="#f6a000"/><stop offset="100%" stop-color="#e63011"/></linearGradient><path fill="url(#a)" d="M134 246h112V86h40v200H134zm209.191 208.32l-78.402-74.632-27.578 28.972 108.227 103.024 166.44-185.32-29.757-26.727zM40 256c0-55.723 21.227-106.566 56-144.918V172h40V46H10v40h54.605C22.844 132.895 0 192.688 0 256c0 68.379 26.629 132.668 74.98 181.02C123.332 485.37 187.621 512 256 512a260.7 260.7 0 0 0 29.934-1.734l-40.473-38.528C131.234 466.227 40 371.57 40 256zm430.98-20.96l8.11 8.108 29.758 26.73 2.629 2.36A260.6 260.6 0 0 0 512 256c0-68.379-26.629-132.668-74.98-181.02C388.668 26.63 324.379 0 256 0c-3.344 0-6.68.066-10 .195v40.043A212.62 212.62 0 0 1 256 40c112.031 0 204.406 85.734 214.98 195.04zm0 0"/></svg>