<svg xmlns="http://www.w3.org/2000/svg" viewBox="0 0 110.8 43.1"><linearGradient id="a" gradientUnits="userSpaceOnUse" x1="53.891" y1="22.059" x2="54.7" y2="-1.093"><stop offset="0" stop-color="#e30613"/><stop offset="1" stop-color="#fc0"/></linearGradient><path d="M54 0C42.7 0 33.5 9.2 33.5 20.4v.6c11.9-1.1 26.9-1.4 40.9-1C74.2 8.9 65.1 0 54 0z" fill-rule="evenodd" clip-rule="evenodd" fill="url(#a)"/><linearGradient id="b" gradientUnits="userSpaceOnUse" x1="54.009" y1="32.676" x2="89.731" y2="-65.47"><stop offset="0" stop-color="#e30613"/><stop offset="1" stop-color="#fc0"/></linearGradient><path d="M27.8 27.9v.1c-8.3.7-16.4 1.4-24.9 2.9-1 .9-2.7.6-2.9-1.7-.2-2.2 1.7-2.8 2.4-2.2 9-1.7 16-2.4 25.2-3.1.2-1 .4-2.1.6-2.6.5-.2.9-.3 1.3-.2.9.4 1.9 1.6 2 2.4 22-2.7 60-1.6 73.8 1.7 2.5.5 4.4 2.2 5.2 3.5.5.8 0 .8-.4.8-26.4-3.3-56.4-4.2-78.5-1.8-.1.9-.2 1.7-.5 2.4-.3.2-.9.3-1.3.2-1-.3-1.6-1.3-2-2.4z" fill-rule="evenodd" clip-rule="evenodd" fill="url(#b)"/><linearGradient id="c" gradientUnits="userSpaceOnUse" x1="53.89" y1="35.165" x2="54.17" y2="33.176"><stop offset="0" stop-color="#e30613"/><stop offset="1" stop-color="#fc0"/></linearGradient><path d="M35.9 29.8c8.6-1.5 37.7-1.2 37.3.9-.4 2.2-14.1 2.3-27.4 4.4 36.1.3 22 2.1 4.6 1.8-.5 0-7.2-.1-9.7-.2-1.1 0-2.1-.7-.7-1.4 2.8-1.5 11.7-2.9 19.3-3.9-9 .2-14.9.1-21.5 2l-1.9-3.6z" fill-rule="evenodd" clip-rule="evenodd" fill="url(#c)"/><linearGradient id="d" gradientUnits="userSpaceOnUse" x1="53.564" y1="39.765" x2="55.012" y2="36.922"><stop offset="0" stop-color="#e30613"/><stop offset="1" stop-color="#fc0"/></linearGradient><path d="M59.1 41c-3.3 0-5.2-.1-8.8.1l4.7 1.2c-.5.2-1.4.6-1.9.8l-5.6-1.4-1-.9c5-1.7 9-2 13.9-2.3L59.1 41z" fill-rule="evenodd" clip-rule="evenodd" fill="url(#d)"/></svg>