<svg fill="#fff" xmlns="http://www.w3.org/2000/svg" viewBox="0 0 384 384"><path d="M277.333 145.141V82.208H320a21.24 21.24 0 0 0 15.083-6.251L377.75 33.29 347.584 3.125l-36.416 36.416H72.832L36.416 3.125 6.251 33.291l42.667 42.667a21.239 21.239 0 0 0 15.083 6.251h42.667v62.933C43.541 176.629 0 241.675 0 316.875v42.667c0 11.776 9.536 21.333 21.333 21.333h341.333c11.797 0 21.333-9.557 21.333-21.333v-42.667c.001-75.2-43.54-140.246-106.666-171.734zm-128-62.933h85.333v47.616c-13.76-3.136-27.989-4.949-42.667-4.949s-28.907 1.813-42.667 4.949V82.208zm192 256H42.667v-21.333c0-82.347 67.008-149.333 149.333-149.333s149.333 66.987 149.333 149.333v21.333z"/><path d="M170.667 210.208h42.667v85.333h-42.667z"/></svg>