<svg xmlns="http://www.w3.org/2000/svg" viewBox="0 0 280 280"><path d="M235.098 19.89C209.445 7.063 175.673 0 140 0S70.555 7.063 44.902 19.89C15.947 34.368 0 54.828 0 77.5v125c0 22.672 15.947 43.132 44.902 57.61C70.555 272.936 104.327 280 140 280s69.445-7.064 95.098-19.89C264.053 245.632 280 225.172 280 202.5v-125c0-22.672-15.947-43.132-44.902-57.61zM140 30c62.958 0 110 25.078 110 47.5S202.958 125 140 125 30 99.922 30 77.5 77.042 30 140 30zm0 220c-62.958 0-110-25.078-110-47.5v-76.145c4.497 3.112 9.471 6.039 14.902 8.755C70.555 147.936 104.327 155 140 155s69.445-7.064 95.098-19.89c5.432-2.716 10.405-5.643 14.902-8.755V202.5c0 22.422-47.042 47.5-110 47.5z"/><ellipse cx="140" cy="77.501" rx="45" ry="22.5"/></svg>