<svg xmlns="http://www.w3.org/2000/svg" style="width:0; height:0; visibility:hidden;">
    <symbol id="icon_blades" viewBox="0 -5 512 512">
      <path d="m512 427.355469-71.644531-71.644531 27.710937-27.710938-59.738281-59.738281-31.253906 31.253906-44.152344-48.546875 80.679687-71.1875-6.261718-179.78125-151.339844 166.394531-151.339844-166.394531-6.261718 179.777344 80.679687 71.1875-44.152344 48.546875-31.253906-31.25-59.738281 59.738281 27.710937 27.710938-71.644531 71.644531 73.933594 73.933593 71.644531-71.644531 27.710937 27.710938 59.738282-59.738281-31.082032-31.082032 54.054688-47.695312 54.054688 47.695312-31.085938 31.082032 59.742188 59.738281 27.710937-27.710938 71.644531 71.644531zm-438.066406 31.507812-31.507813-31.507812 50.433594-50.429688 31.507813 31.503907zm54.941406-292.203125 3.203125-91.933594 103.648437 113.960938-36.460937 40.082031zm44.414062 248.269532-86.929687-86.929688 17.3125-17.3125 86.929687 86.929688zm-17.128906-94.179688 223.761719-246.019531 3.203125 91.929687-202.433594 178.617188zm122.511719-21.914062 31.75-28.019532 45.417969 49.933594-24.53125 24.53125zm60.039063 116.09375-17.3125-17.3125 86.929687-86.929688 17.3125 17.3125zm80.429687-38.003907 50.433594 50.429688-31.507813 31.507812-50.433594-50.433593zm0 0"/>
    </symbol>
    <symbol id="icon_calendar" viewBox="0 0 488.152 488.152">
       <g> <g> <path d="M177.854,269.311c0-6.115-4.96-11.069-11.08-11.069h-38.665c-6.113,0-11.074,4.954-11.074,11.069v38.66
			c0,6.123,4.961,11.079,11.074,11.079h38.665c6.12,0,11.08-4.956,11.08-11.079V269.311L177.854,269.311z"/> <path d="M274.483,269.311c0-6.115-4.961-11.069-11.069-11.069h-38.67c-6.113,0-11.074,4.954-11.074,11.069v38.66
			c0,6.123,4.961,11.079,11.074,11.079h38.67c6.108,0,11.069-4.956,11.069-11.079V269.311z"/> <path d="M371.117,269.311c0-6.115-4.961-11.069-11.074-11.069h-38.665c-6.12,0-11.08,4.954-11.08,11.069v38.66
			c0,6.123,4.96,11.079,11.08,11.079h38.665c6.113,0,11.074-4.956,11.074-11.079V269.311z"/> <path d="M177.854,365.95c0-6.125-4.96-11.075-11.08-11.075h-38.665c-6.113,0-11.074,4.95-11.074,11.075v38.653
			c0,6.119,4.961,11.074,11.074,11.074h38.665c6.12,0,11.08-4.956,11.08-11.074V365.95L177.854,365.95z"/> <path d="M274.483,365.95c0-6.125-4.961-11.075-11.069-11.075h-38.67c-6.113,0-11.074,4.95-11.074,11.075v38.653
			c0,6.119,4.961,11.074,11.074,11.074h38.67c6.108,0,11.069-4.956,11.069-11.074V365.95z"/> <path d="M371.117,365.95c0-6.125-4.961-11.075-11.069-11.075h-38.67c-6.12,0-11.08,4.95-11.08,11.075v38.653
			c0,6.119,4.96,11.074,11.08,11.074h38.67c6.108,0,11.069-4.956,11.069-11.074V365.95L371.117,365.95z"/> <path d="M440.254,54.354v59.05c0,26.69-21.652,48.198-48.338,48.198h-30.493c-26.688,0-48.627-21.508-48.627-48.198V54.142
			h-137.44v59.262c0,26.69-21.938,48.198-48.622,48.198H96.235c-26.685,0-48.336-21.508-48.336-48.198v-59.05
			C24.576,55.057,5.411,74.356,5.411,98.077v346.061c0,24.167,19.588,44.015,43.755,44.015h389.82
			c24.131,0,43.755-19.889,43.755-44.015V98.077C482.741,74.356,463.577,55.057,440.254,54.354z M426.091,422.588
			c0,10.444-8.468,18.917-18.916,18.917H80.144c-10.448,0-18.916-8.473-18.916-18.917V243.835c0-10.448,8.467-18.921,18.916-18.921
			h327.03c10.448,0,18.916,8.473,18.916,18.921L426.091,422.588L426.091,422.588z"/> <path d="M96.128,129.945h30.162c9.155,0,16.578-7.412,16.578-16.567V16.573C142.868,7.417,135.445,0,126.29,0H96.128
			C86.972,0,79.55,7.417,79.55,16.573v96.805C79.55,122.533,86.972,129.945,96.128,129.945z"/> <path d="M361.035,129.945h30.162c9.149,0,16.572-7.412,16.572-16.567V16.573C407.77,7.417,400.347,0,391.197,0h-30.162
			c-9.154,0-16.577,7.417-16.577,16.573v96.805C344.458,122.533,351.881,129.945,361.035,129.945z"/> </g> </g>                
    </symbol>
    <symbol id="icon_cart" viewBox="-16 0 512 512">
      <path d="M434.223 367.797l44.964-209.902H119.363L85.527 0H0v30.145h61.156l69.793 325.671-9.789 56.524c-15.008 9.625-24.984 26.445-24.984 45.562 0 29.828 24.27 54.098 54.101 54.098 29.828 0 54.098-24.27 54.098-54.098 0-8.601-2.023-16.73-5.61-23.957h95.606a53.74 53.74 0 0 0-5.613 23.957c0 29.828 24.27 54.098 54.101 54.098 29.828 0 54.098-24.27 54.098-54.098 0-29.832-24.27-54.101-54.098-54.101H153.23l6.239-36.004zm7.675-179.758l-32.046 149.613H157.887L125.82 188.04zM174.234 457.902c0 13.207-10.75 23.953-23.957 23.953-13.21 0-23.957-10.746-23.957-23.953 0-13.21 10.75-23.957 23.957-23.957s23.957 10.746 23.957 23.957zm192.578 0c0 13.207-10.746 23.953-23.953 23.953-13.21 0-23.957-10.746-23.957-23.953 0-13.21 10.75-23.957 23.957-23.957s23.954 10.746 23.954 23.957zm0 0"/><path d="M268.79 223.68h30.144v78.328h-30.145zm0 0M341.258 223.68h30.144v78.328h-30.144zm0 0M196.32 223.68h30.145v78.328H196.32zm0 0"/>
    </symbol>
    <symbol id="icon_close-button" viewBox="0 0 357 357">
       <g> <g id="close"> <polygon points="357,35.7 321.3,0 178.5,142.8 35.7,0 0,35.7 142.8,178.5 0,321.3 35.7,357 178.5,214.2 321.3,357 357,321.3 
			214.2,178.5 		"/> </g> </g>                
    </symbol>
    <symbol id="icon_cursor" viewBox="0 0 512 512">
       <g> <g> <path d="M355.095,284.612L512,183.087L0,0l183.085,512l101.527-156.905L394.53,465.013c19.463,19.463,51.019,19.462,70.483,0
			c19.462-19.463,19.462-51.019,0-70.483L355.095,284.612z"/> </g> </g>                
    </symbol>
    <symbol id="icon_email" viewBox="0 -76 512 512">
      <path d="m492 0h-472c-10.765625 0-20 8.796875-20 20v320c0 10.742188 8.753906 20 20 20h472c11.265625 0 20-9.230469 20-20v-320c0-11.050781-9.058594-20-20-20zm-49.175781 40-186.824219 182.074219-186.824219-182.074219zm-402.824219 27.417969 115.519531 112.582031-115.519531 112.582031zm29.179688 252.582031 114.996093-112.074219 57.863281 56.398438c7.769532 7.566406 20.152344 7.570312 27.921876 0l57.863281-56.398438 114.996093 112.074219zm402.820312-27.417969-115.519531-112.582031 115.519531-112.582031zm0 0"/>
    </symbol>
    <symbol id="icon_facebook" viewBox="0 0 100 100">
      <path d="M72.089.02L59.624 0C45.62 0 36.57 9.285 36.57 23.656v10.907H24.037a1.96 1.96 0 0 0-1.96 1.961v15.803a1.96 1.96 0 0 0 1.96 1.96H36.57v39.876a1.96 1.96 0 0 0 1.96 1.96h16.352a1.96 1.96 0 0 0 1.96-1.96V54.287h14.654a1.96 1.96 0 0 0 1.96-1.96l.006-15.803a1.963 1.963 0 0 0-1.961-1.961H56.842v-9.246c0-4.444 1.059-6.7 6.848-6.7l8.397-.003a1.96 1.96 0 0 0 1.959-1.96V1.98A1.96 1.96 0 0 0 72.089.02z"/>
    </symbol>
    <symbol id="icon_gear" viewBox="0 0 21.589 21.589">
       <g> <path d="M18.622,8.371l-0.545-1.295c0,0,1.268-2.861,1.156-2.971l-1.679-1.639c-0.116-0.113-2.978,1.193-2.978,1.193l-1.32-0.533
		c0,0-1.166-2.9-1.326-2.9H9.561c-0.165,0-1.244,2.906-1.244,2.906L6.999,3.667c0,0-2.922-1.242-3.034-1.131L2.289,4.177
		C2.173,4.29,3.507,7.093,3.507,7.093L2.962,8.386c0,0-2.962,1.141-2.962,1.295v2.322c0,0.162,2.969,1.219,2.969,1.219l0.545,1.291
		c0,0-1.268,2.859-1.157,2.969l1.678,1.643c0.114,0.111,2.977-1.195,2.977-1.195l1.321,0.535c0,0,1.166,2.898,1.327,2.898h2.369
		c0.164,0,1.244-2.906,1.244-2.906l1.322-0.535c0,0,2.916,1.242,3.029,1.133l1.678-1.641c0.117-0.115-1.22-2.916-1.22-2.916
		l0.544-1.293c0,0,2.963-1.143,2.963-1.299v-2.32C21.59,9.425,18.622,8.371,18.622,8.371z M14.256,10.794
		c0,1.867-1.553,3.387-3.461,3.387c-1.906,0-3.461-1.52-3.461-3.387s1.555-3.385,3.461-3.385
		C12.704,7.41,14.256,8.927,14.256,10.794z"/>                </g>                
    </symbol>
    <symbol id="icon_instagram" viewBox="0 0 512 512">
      <path d="M352 0H160C71.648 0 0 71.648 0 160v192c0 88.352 71.648 160 160 160h192c88.352 0 160-71.648 160-160V160C512 71.648 440.352 0 352 0zm112 352c0 61.76-50.24 112-112 112H160c-61.76 0-112-50.24-112-112V160C48 98.24 98.24 48 160 48h192c61.76 0 112 50.24 112 112v192z"/><path d="M256 128c-70.688 0-128 57.312-128 128s57.312 128 128 128 128-57.312 128-128-57.312-128-128-128zm0 208c-44.096 0-80-35.904-80-80 0-44.128 35.904-80 80-80s80 35.872 80 80c0 44.096-35.904 80-80 80z"/><circle cx="393.6" cy="118.4" r="17.056"/>
    </symbol>
    <symbol id="icon_marketing" viewBox="-16 0 512 512">
      <path d="m434.222656 367.796875 44.964844-209.902344h-359.824219l-33.835937-157.894531h-85.527344v30.144531h61.15625l69.792969 325.671875-9.789063 56.523438c-15.007812 9.625-24.984375 26.445312-24.984375 45.5625 0 29.828125 24.269531 54.097656 54.101563 54.097656 29.828125 0 54.097656-24.269531 54.097656-54.097656 0-8.601563-2.023438-16.730469-5.609375-23.957032h95.605469c-3.585938 7.226563-5.613282 15.355469-5.613282 23.957032 0 29.828125 24.269532 54.097656 54.101563 54.097656 29.828125 0 54.097656-24.269531 54.097656-54.097656 0-29.832032-24.269531-54.101563-54.097656-54.101563h-189.628906l6.238281-36.003906zm7.675782-179.757813-32.046876 149.613282h-251.964843l-32.066407-149.613282zm-267.664063 269.863282c0 13.207031-10.75 23.953125-23.957031 23.953125-13.210938 0-23.957032-10.746094-23.957032-23.953125 0-13.210938 10.75-23.957032 23.957032-23.957032 13.207031 0 23.957031 10.746094 23.957031 23.957032zm192.578125 0c0 13.207031-10.746094 23.953125-23.953125 23.953125-13.210937 0-23.957031-10.746094-23.957031-23.953125 0-13.210938 10.75-23.957032 23.957031-23.957032s23.953125 10.746094 23.953125 23.957032zm0 0"/><path d="m268.789062 223.679688h30.144532v78.328124h-30.144532zm0 0"/><path d="m341.257812 223.679688h30.144532v78.328124h-30.144532zm0 0"/><path d="m196.320312 223.679688h30.144532v78.328124h-30.144532zm0 0"/>
    </symbol>
    <symbol id="icon_odnoklassniki" viewBox="0 0 100 100">
      <path d="M43.041 67.254c-7.402-.772-14.076-2.595-19.79-7.064-.709-.556-1.441-1.092-2.088-1.713-2.501-2.402-2.753-5.153-.774-7.988 1.693-2.426 4.535-3.075 7.489-1.682.572.27 1.117.607 1.639.969 10.649 7.317 25.278 7.519 35.967.329 1.059-.812 2.191-1.474 3.503-1.812 2.551-.655 4.93.282 6.299 2.514 1.564 2.549 1.544 5.037-.383 7.016-2.956 3.034-6.511 5.229-10.461 6.761-3.735 1.448-7.826 2.177-11.875 2.661.611.665.899.992 1.281 1.376 5.498 5.524 11.02 11.025 16.5 16.566 1.867 1.888 2.257 4.229 1.229 6.425-1.124 2.4-3.64 3.979-6.107 3.81-1.563-.108-2.782-.886-3.865-1.977-4.149-4.175-8.376-8.273-12.441-12.527-1.183-1.237-1.752-1.003-2.796.071-4.174 4.297-8.416 8.528-12.683 12.735-1.916 1.889-4.196 2.229-6.418 1.15-2.362-1.145-3.865-3.556-3.749-5.979.08-1.639.886-2.891 2.011-4.014 5.441-5.433 10.867-10.88 16.295-16.322.359-.362.694-.746 1.217-1.305z"/><path d="M47.55 48.329c-13.205-.045-24.033-10.992-23.956-24.218C23.67 10.739 34.505-.037 47.84 0c13.362.036 24.087 10.967 24.02 24.478-.068 13.199-10.971 23.897-24.31 23.851zm12.001-24.186c-.023-6.567-5.253-11.795-11.807-11.801-6.609-.007-11.886 5.316-11.835 11.943.049 6.542 5.324 11.733 11.896 11.709 6.552-.023 11.768-5.285 11.746-11.851z"/>
    </symbol>
    <symbol id="icon_pencil" viewBox="0 0 528.899 528.899">
       <g> <path d="M328.883,89.125l107.59,107.589l-272.34,272.34L56.604,361.465L328.883,89.125z M518.113,63.177l-47.981-47.981
		c-18.543-18.543-48.653-18.543-67.259,0l-45.961,45.961l107.59,107.59l53.611-53.611
		C532.495,100.753,532.495,77.559,518.113,63.177z M0.3,512.69c-1.958,8.812,5.998,16.708,14.811,14.565l119.891-29.069
		L27.473,390.597L0.3,512.69z"/> </g>                
    </symbol>
    <symbol id="icon_person-account" viewBox="0 0 510 510">
       <g> <g id="account-circle"> <path d="M255,0C114.75,0,0,114.75,0,255s114.75,255,255,255s255-114.75,255-255S395.25,0,255,0z M255,76.5
			c43.35,0,76.5,33.15,76.5,76.5s-33.15,76.5-76.5,76.5c-43.35,0-76.5-33.15-76.5-76.5S211.65,76.5,255,76.5z M255,438.6
			c-63.75,0-119.85-33.149-153-81.6c0-51,102-79.05,153-79.05S408,306,408,357C374.85,405.45,318.75,438.6,255,438.6z"/> </g> </g>                
    </symbol>
    <symbol id="icon_person-comment" viewBox="0 0 512 512">
      <path d="M437.02 74.98C388.668 26.63 324.379 0 256 0S123.332 26.629 74.98 74.98C26.63 123.332 0 187.621 0 256s26.629 132.668 74.98 181.02C123.332 485.37 187.621 512 256 512s132.668-26.629 181.02-74.98C485.37 388.668 512 324.379 512 256s-26.629-132.668-74.98-181.02zM111.105 429.297c8.454-72.735 70.989-128.89 144.895-128.89 38.96 0 75.598 15.179 103.156 42.734 23.281 23.285 37.965 53.687 41.742 86.152C361.641 462.172 311.094 482 256 482s-105.637-19.824-144.895-52.703zM256 269.507c-42.871 0-77.754-34.882-77.754-77.753C178.246 148.879 213.13 114 256 114s77.754 34.879 77.754 77.754c0 42.871-34.883 77.754-77.754 77.754zm170.719 134.427a175.9 175.9 0 0 0-46.352-82.004c-18.437-18.438-40.25-32.27-64.039-40.938 28.598-19.394 47.426-52.16 47.426-89.238C363.754 132.34 315.414 84 256 84s-107.754 48.34-107.754 107.754c0 37.098 18.844 69.875 47.465 89.266-21.887 7.976-42.14 20.308-59.566 36.542-25.235 23.5-42.758 53.465-50.883 86.348C50.852 364.242 30 312.512 30 256 30 131.383 131.383 30 256 30s226 101.383 226 226c0 56.523-20.86 108.266-55.281 147.934zm0 0"/>
    </symbol>
    <symbol id="icon_phone-working" viewBox="0 0 459 459">
       <g> <g id="phone-in-talk"> <path d="M433.5,318.75c-30.6,0-61.2-5.1-91.8-15.3c-7.65-2.55-17.851,0-25.5,5.1L260.1,364.65
			c-71.399-35.7-130.05-96.9-168.3-168.3l56.1-56.1c7.65-7.65,10.2-17.85,5.1-25.5c-7.65-28.05-12.75-58.65-12.75-89.25
			c0-15.3-10.2-25.5-25.5-25.5H25.5C10.2,0,0,10.2,0,25.5C0,265.2,193.8,459,433.5,459c15.3,0,25.5-10.2,25.5-25.5v-89.25
			C459,328.95,448.8,318.75,433.5,318.75z M408,229.5h51C459,102,357,0,229.5,0v51C328.95,51,408,130.05,408,229.5z M306,229.5h51
			c0-71.4-56.1-127.5-127.5-127.5v51C272.85,153,306,186.15,306,229.5z"/> </g> </g>                
    </symbol>
    <symbol id="icon_phone" viewBox="0 0 512 512">
      <path d="m512 256c0-141.484375-114.496094-256-256-256-11.046875 0-20 8.953125-20 20s8.953125 20 20 20c119.101562 0 216 96.898438 216 216 0 50.871094-17.566406 99.230469-49.777344 137.9375l-67.226562-67.226562c-7.8125-7.8125-20.476563-7.8125-28.285156 0-16.996094 16.996093-39.03125 27.121093-62.738282 28.980468l-107.660156-107.664062c1.855469-23.707032 11.980469-45.742188 28.976562-62.738282 7.804688-7.804687 7.8125-20.472656 0-28.28125l-82.023437-82.027343c-7.8125-7.808594-20.472656-7.808594-28.285156 0-48.351563 48.351562-74.980469 112.640625-74.980469 181.019531 0 5.304688 2.105469 10.390625 5.859375 14.140625l235.996094 236c3.75 3.753906 8.835937 5.859375 14.140625 5.859375h.003906c141.558594 0 256-114.785156 256-256zm-247.867188 215.851562-223.984374-223.988281c1.761718-47.964843 19.109374-93.183593 49.617187-129.8125l54.09375 54.09375c-18.082031 24.074219-27.859375 53.210938-27.859375 83.855469 0 5.304688 2.105469 10.390625 5.859375 14.140625l120 120c3.75 3.753906 8.835937 5.859375 14.140625 5.859375 30.644531 0 59.78125-9.777344 83.855469-27.859375l54.097656 54.09375c-36.632813 30.507813-81.851563 47.855469-129.820313 49.617187zm0 0"/>
    </symbol>
    <symbol id="icon_pin" viewBox="-68 0 512 512">
      <path d="m187.644531 0c-103.46875 0-187.644531 84.175781-187.644531 187.644531 0 47.53125 29.949219 114.6875 89.019531 199.605469 43.175781 62.074219 85.640625 110.109375 87.429688 112.125l11.195312 12.625 11.199219-12.625c1.785156-2.015625 44.25-50.050781 87.429688-112.125 59.066406-84.917969 89.019531-152.074219 89.019531-199.605469 0-103.46875-84.179688-187.644531-187.648438-187.644531zm74.21875 369.914062c-29.183593 41.984376-58.679687 78.117188-74.21875 96.550782-15.5-18.382813-44.886719-54.378906-74.050781-96.308594-54.730469-78.679688-83.660156-141.792969-83.660156-182.511719 0-86.960937 70.75-157.710937 157.710937-157.710937 86.964844 0 157.710938 70.75 157.710938 157.710937 0 40.675781-28.871094 103.703125-83.492188 182.269531zm0 0"/><path d="m187.644531 69.351562c-61.066406 0-110.746093 49.679688-110.746093 110.746094s49.679687 110.75 110.746093 110.75c61.070313 0 110.75-49.683594 110.75-110.75s-49.679687-110.746094-110.75-110.746094zm0 191.5625c-44.558593 0-80.8125-36.253906-80.8125-80.816406 0-44.558594 36.253907-80.8125 80.8125-80.8125 44.5625 0 80.816407 36.253906 80.816407 80.8125 0 44.5625-36.253907 80.816406-80.816407 80.816406zm0 0"/>
    </symbol>
    <symbol id="icon_reload" viewBox="0 0 489.533 489.533">
       <g> <path d="M268.175,488.161c98.2-11,176.9-89.5,188.1-187.7c14.7-128.4-85.1-237.7-210.2-239.1v-57.6c0-3.2-4-4.9-6.7-2.9
		l-118.6,87.1c-2,1.5-2,4.4,0,5.9l118.6,87.1c2.7,2,6.7,0.2,6.7-2.9v-57.5c87.9,1.4,158.3,76.2,152.3,165.6
		c-5.1,76.9-67.8,139.3-144.7,144.2c-81.5,5.2-150.8-53-163.2-130c-2.3-14.3-14.8-24.7-29.2-24.7c-17.9,0-31.9,15.9-29.1,33.6
		C49.575,418.961,150.875,501.261,268.175,488.161z"/> </g>                
    </symbol>
    <symbol id="icon_samurai-answer" viewBox="0 0 110.8 43.1">
        <metadata> <sfw xmlns="&amp;ns_sfw;"> <slices/> <sliceSourceBounds bottomLeftOrigin="true" height="43.1" width="110.8" x="1405.8" y="1005.2"/> </sfw> </metadata> <g> <linearGradient id="SVGID_1_" gradientUnits="userSpaceOnUse" x1="53.8912" y1="22.059" x2="54.6997" y2="-1.093"> <stop offset="0" style="stop-color:#E30613"/> <stop offset="1" style="stop-color:#FFCC00"/> </linearGradient> <path class="st0" d="M54,0C42.7,0,33.5,9.2,33.5,20.4c0,0.2,0,0.4,0,0.6c11.9-1.1,26.9-1.4,40.9-1C74.2,8.9,65.1,0,54,0z"/> <linearGradient id="SVGID_2_" gradientUnits="userSpaceOnUse" x1="54.0092" y1="32.6763" x2="89.7315" y2="-65.47"> <stop offset="0" style="stop-color:#E30613"/> <stop offset="1" style="stop-color:#FFCC00"/> </linearGradient> <path class="st1" d="M27.8,27.9l0,0.1c-8.3,0.7-16.4,1.4-24.9,2.9c-1,0.9-2.7,0.6-2.9-1.7C-0.2,27,1.7,26.4,2.4,27
		c9-1.7,16-2.4,25.2-3.1c0.2-1,0.4-2.1,0.6-2.6c0.5-0.2,0.9-0.3,1.3-0.2c0.9,0.4,1.9,1.6,2,2.4c22-2.7,60-1.6,73.8,1.7
		c2.5,0.5,4.4,2.2,5.2,3.5c0.5,0.8,0,0.8-0.4,0.8c-26.4-3.3-56.4-4.2-78.5-1.8c-0.1,0.9-0.2,1.7-0.5,2.4c-0.3,0.2-0.9,0.3-1.3,0.2
		C28.8,30,28.2,29,27.8,27.9z"/> <linearGradient id="SVGID_3_" gradientUnits="userSpaceOnUse" x1="53.8904" y1="35.1652" x2="54.17" y2="33.1756"> <stop offset="0" style="stop-color:#E30613"/> <stop offset="1" style="stop-color:#FFCC00"/> </linearGradient> <path class="st2" d="M35.9,29.8c8.6-1.5,37.7-1.2,37.3,0.9c-0.4,2.2-14.1,2.3-27.4,4.4c36.1,0.3,22,2.1,4.6,1.8
		c-0.5,0-7.2-0.1-9.7-0.2c-1.1,0-2.1-0.7-0.7-1.4c2.8-1.5,11.7-2.9,19.3-3.9c-9,0.2-14.9,0.1-21.5,2L35.9,29.8z"/> <linearGradient id="SVGID_4_" gradientUnits="userSpaceOnUse" x1="53.5636" y1="39.7649" x2="55.012" y2="36.9221"> <stop offset="0" style="stop-color:#E30613"/> <stop offset="1" style="stop-color:#FFCC00"/> </linearGradient> <path class="st3" d="M59.1,41c-3.3,0-5.2-0.1-8.8,0.1l4.7,1.2c-0.5,0.2-1.4,0.6-1.9,0.8l-5.6-1.4l-1-0.9c5-1.7,9-2,13.9-2.3
		L59.1,41z"/> </g> 
    </symbol>
    <symbol id="icon_scale" viewBox="0 0 384 384">
      <path d="M277.333 145.141V82.208H320a21.24 21.24 0 0 0 15.083-6.251L377.75 33.29 347.584 3.125l-36.416 36.416H72.832L36.416 3.125 6.251 33.291l42.667 42.667a21.239 21.239 0 0 0 15.083 6.251h42.667v62.933C43.541 176.629 0 241.675 0 316.875v42.667c0 11.776 9.536 21.333 21.333 21.333h341.333c11.797 0 21.333-9.557 21.333-21.333v-42.667c.001-75.2-43.54-140.246-106.666-171.734zm-128-62.933h85.333v47.616c-13.76-3.136-27.989-4.949-42.667-4.949s-28.907 1.813-42.667 4.949V82.208zm192 256H42.667v-21.333c0-82.347 67.008-149.333 149.333-149.333s149.333 66.987 149.333 149.333v21.333z"/><path d="M170.667 210.208h42.667v85.333h-42.667z"/>
    </symbol>
    <symbol id="icon_slider-arrow" viewBox="0 0 100 100">
      <path d="M282.082 195.285L149.028 62.24c-1.901-1.903-4.088-2.856-6.562-2.856s-4.665.953-6.567 2.856L2.856 195.285C.95 197.191 0 199.378 0 201.853c0 2.474.953 4.664 2.856 6.566l14.272 14.271c1.903 1.903 4.093 2.854 6.567 2.854s4.664-.951 6.567-2.854l112.204-112.202 112.208 112.209c1.902 1.903 4.093 2.848 6.563 2.848 2.478 0 4.668-.951 6.57-2.848l14.274-14.277c1.902-1.902 2.847-4.093 2.847-6.566.001-2.476-.944-4.666-2.846-6.569z"/>
    </symbol>
    <symbol id="icon_sushi" viewBox="0 0 280 280">
      <path d="M235.098 19.89C209.445 7.063 175.673 0 140 0S70.555 7.063 44.902 19.89C15.947 34.368 0 54.828 0 77.5v125c0 22.672 15.947 43.132 44.902 57.61C70.555 272.936 104.327 280 140 280s69.445-7.064 95.098-19.89C264.053 245.632 280 225.172 280 202.5v-125c0-22.672-15.947-43.132-44.902-57.61zM140 30c62.958 0 110 25.078 110 47.5S202.958 125 140 125 30 99.922 30 77.5 77.042 30 140 30zm0 220c-62.958 0-110-25.078-110-47.5v-76.145c4.497 3.112 9.471 6.039 14.902 8.755C70.555 147.936 104.327 155 140 155s69.445-7.064 95.098-19.89c5.432-2.716 10.405-5.643 14.902-8.755V202.5c0 22.422-47.042 47.5-110 47.5z"/><ellipse cx="140" cy="77.501" rx="45" ry="22.5"/>
    </symbol>
    <symbol id="icon_timer" viewBox="0 0 384 384">
      <path d="m192 0c-105.863281 0-192 86.136719-192 192s86.136719 192 192 192 192-86.136719 192-192-86.136719-192-192-192zm0 352c-88.222656 0-160-71.777344-160-160s71.777344-160 160-160 160 71.777344 160 160-71.777344 160-160 160zm0 0"/><path d="m208 65.113281h-32c-63.039062 7.910157-112 61.734375-112 126.886719 0 70.574219 57.425781 128 128 128s128-57.425781 128-128c0-65.152344-48.960938-118.976562-112-126.886719zm-16 222.886719c-52.9375 0-96-43.0625-96-96 0-47.472656 34.671875-86.902344 80-94.550781v110.550781h80v-32h-48v-78.550781c45.328125 7.648437 80 47.078125 80 94.550781 0 52.9375-43.0625 96-96 96zm0 0"/>
    </symbol>
    <symbol id="icon_user" viewBox="0 0 512 512">
      <path d="m437.019531 74.980469c-48.351562-48.351563-112.640625-74.980469-181.019531-74.980469s-132.667969 26.628906-181.019531 74.980469c-48.351563 48.351562-74.980469 112.640625-74.980469 181.019531s26.628906 132.667969 74.980469 181.019531c48.351562 48.351563 112.640625 74.980469 181.019531 74.980469s132.667969-26.628906 181.019531-74.980469c48.351563-48.351562 74.980469-112.640625 74.980469-181.019531s-26.628906-132.667969-74.980469-181.019531zm-325.914062 354.316406c8.453125-72.734375 70.988281-128.890625 144.894531-128.890625 38.960938 0 75.597656 15.179688 103.15625 42.734375 23.28125 23.285156 37.964844 53.6875 41.742188 86.152344-39.257813 32.878906-89.804688 52.707031-144.898438 52.707031s-105.636719-19.824219-144.894531-52.703125zm144.894531-159.789063c-42.871094 0-77.753906-34.882812-77.753906-77.753906 0-42.875 34.882812-77.753906 77.753906-77.753906s77.753906 34.878906 77.753906 77.753906c0 42.871094-34.882812 77.753906-77.753906 77.753906zm170.71875 134.425782c-7.644531-30.820313-23.585938-59.238282-46.351562-82.003906-18.4375-18.4375-40.25-32.269532-64.039063-40.9375 28.597656-19.394532 47.425781-52.160157 47.425781-89.238282 0-59.414062-48.339844-107.753906-107.753906-107.753906s-107.753906 48.339844-107.753906 107.753906c0 37.097656 18.84375 69.875 47.464844 89.265625-21.886719 7.976563-42.140626 20.308594-59.566407 36.542969-25.234375 23.5-42.757812 53.464844-50.882812 86.347656-34.410157-39.667968-55.261719-91.398437-55.261719-147.910156 0-124.617188 101.382812-226 226-226s226 101.382812 226 226c0 56.523438-20.859375 108.265625-55.28125 147.933594zm0 0"/>
    </symbol>
    <symbol id="icon_vk" viewBox="0 0 304.36 304.36">
      <path d="M261.945 175.576c10.096 9.857 20.752 19.131 29.807 29.982 4 4.822 7.787 9.798 10.684 15.394 4.105 7.955.387 16.709-6.746 17.184l-44.34-.02c-11.436.949-20.559-3.655-28.23-11.474-6.139-6.253-11.824-12.908-17.727-19.372-2.42-2.642-4.953-5.128-7.979-7.093-6.053-3.929-11.307-2.726-14.766 3.587-3.523 6.421-4.322 13.531-4.668 20.687-.475 10.441-3.631 13.186-14.119 13.664-22.414 1.057-43.686-2.334-63.447-13.641-17.422-9.968-30.932-24.04-42.691-39.971-22.895-31.021-40.428-65.108-56.186-100.15C-2.01 76.458.584 72.22 9.295 72.07c14.465-.281 28.928-.261 43.41-.02 5.879.086 9.771 3.458 12.041 9.012 7.826 19.243 17.402 37.551 29.422 54.521 3.201 4.518 6.465 9.036 11.113 12.216 5.142 3.521 9.057 2.354 11.476-3.374 1.535-3.632 2.207-7.544 2.553-11.434 1.146-13.383 1.297-26.743-.713-40.079-1.234-8.323-5.922-13.711-14.227-15.286-4.238-.803-3.607-2.38-1.555-4.799 3.564-4.172 6.916-6.769 13.598-6.769h50.111c7.889 1.557 9.641 5.101 10.721 13.039l.043 55.663c-.086 3.073 1.535 12.192 7.07 14.226 4.43 1.448 7.35-2.096 10.008-4.905 11.998-12.734 20.561-27.783 28.211-43.366 3.395-6.852 6.314-13.968 9.143-21.078 2.096-5.276 5.385-7.872 11.328-7.757l48.229.043c1.43 0 2.877.021 4.262.258 8.127 1.385 10.354 4.881 7.844 12.817-3.955 12.451-11.65 22.827-19.174 33.251-8.043 11.129-16.645 21.877-24.621 33.072-7.328 10.223-6.746 15.376 2.357 24.255zm0 0" fill-rule="evenodd" clip-rule="evenodd"/>
    </symbol></svg>