<svg version="1.1" id="Layer_1" xmlns="http://www.w3.org/2000/svg" width="20" height="20" viewBox="0 0 400 400"><path fill="#ffffff" d="m192 0c-105.863281 0-192 86.136719-192 192s86.136719 192 192 192 192-86.136719 192-192-86.136719-192-192-192zm0 352c-88.222656 0-160-71.777344-160-160s71.777344-160 160-160 160 71.777344 160 160-71.777344 160-160 160zm0 0"/><path fill="#ffffff" d="m208 65.113281h-32c-63.039062 7.910157-112 61.734375-112 126.886719 0 70.574219 57.425781 128 128 128s128-57.425781 128-128c0-65.152344-48.960938-118.976562-112-126.886719zm-16 222.886719c-52.9375 0-96-43.0625-96-96 0-47.472656 34.671875-86.902344 80-94.550781v110.550781h80v-32h-48v-78.550781c45.328125 7.648437 80 47.078125 80 94.550781 0 52.9375-43.0625 96-96 96zm0 0"/></svg>