<svg version="1.1" id="Layer_1" xmlns="http://www.w3.org/2000/svg" width="20" height="20" viewBox="0 0 512 512"><path fill="#ffffff" d="m512 256c0-141.484375-114.496094-256-256-256-11.046875 0-20 8.953125-20 20s8.953125 20 20 20c119.101562 0 216 96.898438 216 216 0 50.871094-17.566406 99.230469-49.777344 137.9375l-67.226562-67.226562c-7.8125-7.8125-20.476563-7.8125-28.285156 0-16.996094 16.996093-39.03125 27.121093-62.738282 28.980468l-107.660156-107.664062c1.855469-23.707032 11.980469-45.742188 28.976562-62.738282 7.804688-7.804687 7.8125-20.472656 0-28.28125l-82.023437-82.027343c-7.8125-7.808594-20.472656-7.808594-28.285156 0-48.351563 48.351562-74.980469 112.640625-74.980469 181.019531 0 5.304688 2.105469 10.390625 5.859375 14.140625l235.996094 236c3.75 3.753906 8.835937 5.859375 14.140625 5.859375h.003906c141.558594 0 256-114.785156 256-256zm-247.867188 215.851562-223.984374-223.988281c1.761718-47.964843 19.109374-93.183593 49.617187-129.8125l54.09375 54.09375c-18.082031 24.074219-27.859375 53.210938-27.859375 83.855469 0 5.304688 2.105469 10.390625 5.859375 14.140625l120 120c3.75 3.753906 8.835937 5.859375 14.140625 5.859375 30.644531 0 59.78125-9.777344 83.855469-27.859375l54.097656 54.09375c-36.632813 30.507813-81.851563 47.855469-129.820313 49.617187zm0 0"/></svg>